<mxfile host="Electron" modified="2023-10-06T15:05:07.481Z" agent="Mozilla/5.0 (Windows NT 10.0; Win64; x64) AppleWebKit/537.36 (KHTML, like Gecko) draw.io/21.7.5 Chrome/114.0.5735.289 Electron/25.8.1 Safari/537.36" etag="5Yi8rOApA_eRhpDBE8eD" version="21.7.5" type="device">
  <diagram name="PÃ¡gina-1" id="nS9otRSdnI5hJtbakz7M">
    <mxGraphModel dx="1434" dy="844" grid="1" gridSize="10" guides="1" tooltips="1" connect="1" arrows="1" fold="1" page="1" pageScale="1" pageWidth="827" pageHeight="1169" math="0" shadow="0">
      <root>
        <mxCell id="0" />
        <mxCell id="1" parent="0" />
        <mxCell id="w8ymRbTC4XCtCmgdDUyY-7" value="Camionero&lt;br&gt;" style="shape=umlActor;verticalLabelPosition=bottom;verticalAlign=top;html=1;outlineConnect=0;" parent="1" vertex="1">
          <mxGeometry x="50" y="200" width="30" height="60" as="geometry" />
        </mxCell>
        <mxCell id="w8ymRbTC4XCtCmgdDUyY-12" value="Cambio de estado envio" style="ellipse;whiteSpace=wrap;html=1;" parent="1" vertex="1">
          <mxGeometry x="440" y="190" width="120" height="80" as="geometry" />
        </mxCell>
        <mxCell id="w8ymRbTC4XCtCmgdDUyY-20" value="&amp;lt;&amp;lt;extends&amp;gt;&amp;gt;" style="html=1;verticalAlign=bottom;labelBackgroundColor=none;endArrow=open;endFill=0;dashed=1;rounded=0;" parent="1" source="w8ymRbTC4XCtCmgdDUyY-27" target="w8ymRbTC4XCtCmgdDUyY-12" edge="1">
          <mxGeometry width="160" relative="1" as="geometry">
            <mxPoint x="414.0005917463202" y="512.5434977448351" as="sourcePoint" />
            <mxPoint x="477.962725019177" y="489.995508816761" as="targetPoint" />
          </mxGeometry>
        </mxCell>
        <mxCell id="w8ymRbTC4XCtCmgdDUyY-25" value="" style="endArrow=none;html=1;rounded=0;" parent="1" source="w8ymRbTC4XCtCmgdDUyY-7" target="w8ymRbTC4XCtCmgdDUyY-28" edge="1">
          <mxGeometry width="50" height="50" relative="1" as="geometry">
            <mxPoint x="110" y="250" as="sourcePoint" />
            <mxPoint x="180" y="110" as="targetPoint" />
          </mxGeometry>
        </mxCell>
        <mxCell id="w8ymRbTC4XCtCmgdDUyY-27" value="Viisualizar el envio" style="ellipse;whiteSpace=wrap;html=1;" parent="1" vertex="1">
          <mxGeometry x="180" y="190" width="120" height="80" as="geometry" />
        </mxCell>
        <mxCell id="w8ymRbTC4XCtCmgdDUyY-28" value="Visualizar camion asignado" style="ellipse;whiteSpace=wrap;html=1;" parent="1" vertex="1">
          <mxGeometry x="180" y="70" width="120" height="80" as="geometry" />
        </mxCell>
        <mxCell id="w8ymRbTC4XCtCmgdDUyY-30" value="" style="endArrow=none;html=1;rounded=0;" parent="1" source="w8ymRbTC4XCtCmgdDUyY-7" target="w8ymRbTC4XCtCmgdDUyY-27" edge="1">
          <mxGeometry width="50" height="50" relative="1" as="geometry">
            <mxPoint x="310" y="320" as="sourcePoint" />
            <mxPoint x="360" y="270" as="targetPoint" />
          </mxGeometry>
        </mxCell>
        <mxCell id="w8ymRbTC4XCtCmgdDUyY-32" value="Visualizar el destino" style="ellipse;whiteSpace=wrap;html=1;" parent="1" vertex="1">
          <mxGeometry x="180" y="310" width="120" height="80" as="geometry" />
        </mxCell>
        <mxCell id="w8ymRbTC4XCtCmgdDUyY-33" value="" style="endArrow=none;html=1;rounded=0;" parent="1" source="w8ymRbTC4XCtCmgdDUyY-7" target="w8ymRbTC4XCtCmgdDUyY-32" edge="1">
          <mxGeometry width="50" height="50" relative="1" as="geometry">
            <mxPoint x="310" y="320" as="sourcePoint" />
            <mxPoint x="360" y="270" as="targetPoint" />
          </mxGeometry>
        </mxCell>
        <mxCell id="XhrBIPnR7uGEBVEJ_C42-1" value="Operario" style="shape=umlActor;verticalLabelPosition=bottom;verticalAlign=top;html=1;outlineConnect=0;" parent="1" vertex="1">
          <mxGeometry x="40" y="710" width="30" height="60" as="geometry" />
        </mxCell>
        <mxCell id="XhrBIPnR7uGEBVEJ_C42-2" value="Visualizar Producto" style="ellipse;whiteSpace=wrap;html=1;" parent="1" vertex="1">
          <mxGeometry x="630" y="575" width="120" height="80" as="geometry" />
        </mxCell>
        <mxCell id="XhrBIPnR7uGEBVEJ_C42-4" value="" style="endArrow=none;html=1;rounded=0;" parent="1" source="XhrBIPnR7uGEBVEJ_C42-1" target="XhrBIPnR7uGEBVEJ_C42-6" edge="1">
          <mxGeometry width="50" height="50" relative="1" as="geometry">
            <mxPoint x="100" y="760" as="sourcePoint" />
            <mxPoint x="170" y="620" as="targetPoint" />
          </mxGeometry>
        </mxCell>
        <mxCell id="XhrBIPnR7uGEBVEJ_C42-5" value="Gestionar Lote" style="ellipse;whiteSpace=wrap;html=1;" parent="1" vertex="1">
          <mxGeometry x="175" y="810" width="110" height="80" as="geometry" />
        </mxCell>
        <mxCell id="XhrBIPnR7uGEBVEJ_C42-6" value="Gestionar Producto" style="ellipse;whiteSpace=wrap;html=1;" parent="1" vertex="1">
          <mxGeometry x="170" y="580" width="120" height="80" as="geometry" />
        </mxCell>
        <mxCell id="XhrBIPnR7uGEBVEJ_C42-7" value="" style="endArrow=none;html=1;rounded=0;" parent="1" source="XhrBIPnR7uGEBVEJ_C42-1" target="XhrBIPnR7uGEBVEJ_C42-5" edge="1">
          <mxGeometry width="50" height="50" relative="1" as="geometry">
            <mxPoint x="300" y="830" as="sourcePoint" />
            <mxPoint x="350" y="780" as="targetPoint" />
          </mxGeometry>
        </mxCell>
        <mxCell id="scm1Mmv4SYqOX-3d9spi-1" value="Alta" style="ellipse;whiteSpace=wrap;html=1;" parent="1" vertex="1">
          <mxGeometry x="314" y="765" width="110" height="80" as="geometry" />
        </mxCell>
        <mxCell id="scm1Mmv4SYqOX-3d9spi-2" value="Baja" style="ellipse;whiteSpace=wrap;html=1;" parent="1" vertex="1">
          <mxGeometry x="320" y="880" width="100" height="80" as="geometry" />
        </mxCell>
        <mxCell id="scm1Mmv4SYqOX-3d9spi-7" value="Alta" style="ellipse;whiteSpace=wrap;html=1;" parent="1" vertex="1">
          <mxGeometry x="370" y="470" width="120" height="80" as="geometry" />
        </mxCell>
        <mxCell id="scm1Mmv4SYqOX-3d9spi-8" value="Modificacion" style="ellipse;whiteSpace=wrap;html=1;" parent="1" vertex="1">
          <mxGeometry x="370" y="575" width="120" height="80" as="geometry" />
        </mxCell>
        <mxCell id="scm1Mmv4SYqOX-3d9spi-9" value="Baja" style="ellipse;whiteSpace=wrap;html=1;" parent="1" vertex="1">
          <mxGeometry x="370" y="680" width="120" height="80" as="geometry" />
        </mxCell>
        <mxCell id="scm1Mmv4SYqOX-3d9spi-15" value="&amp;lt;&amp;lt;include&amp;gt;&amp;gt;" style="html=1;verticalAlign=bottom;labelBackgroundColor=none;endArrow=open;endFill=0;dashed=1;rounded=0;" parent="1" source="scm1Mmv4SYqOX-3d9spi-9" target="XhrBIPnR7uGEBVEJ_C42-2" edge="1">
          <mxGeometry x="0.0056" width="160" relative="1" as="geometry">
            <mxPoint x="500" y="698" as="sourcePoint" />
            <mxPoint x="766" y="765" as="targetPoint" />
            <Array as="points" />
            <mxPoint as="offset" />
          </mxGeometry>
        </mxCell>
        <mxCell id="hwOIv3nCyyRwBFmye0TC-1" value="&lt;p style=&quot;margin: 4px 0px 0px; text-align: center;&quot;&gt;&lt;b style=&quot;border-color: var(--border-color);&quot;&gt;Usuario Camionero&lt;/b&gt;&lt;br&gt;&lt;/p&gt;&lt;hr&gt;&lt;p style=&quot;margin:0px;margin-left:8px;&quot;&gt;&lt;br&gt;&lt;/p&gt;" style="verticalAlign=top;align=left;overflow=fill;fontSize=12;fontFamily=Helvetica;html=1;whiteSpace=wrap;fillColor=none;" parent="1" vertex="1">
          <mxGeometry x="110" y="45" width="540" height="370" as="geometry" />
        </mxCell>
        <mxCell id="hwOIv3nCyyRwBFmye0TC-3" value="" style="endArrow=none;dashed=1;html=1;rounded=0;" parent="1" source="XhrBIPnR7uGEBVEJ_C42-6" target="scm1Mmv4SYqOX-3d9spi-7" edge="1">
          <mxGeometry width="50" height="50" relative="1" as="geometry">
            <mxPoint x="290" y="550" as="sourcePoint" />
            <mxPoint x="340" y="500" as="targetPoint" />
          </mxGeometry>
        </mxCell>
        <mxCell id="hwOIv3nCyyRwBFmye0TC-4" value="" style="endArrow=none;dashed=1;html=1;rounded=0;" parent="1" source="XhrBIPnR7uGEBVEJ_C42-6" target="scm1Mmv4SYqOX-3d9spi-8" edge="1">
          <mxGeometry width="50" height="50" relative="1" as="geometry">
            <mxPoint x="286" y="605" as="sourcePoint" />
            <mxPoint x="394" y="545" as="targetPoint" />
          </mxGeometry>
        </mxCell>
        <mxCell id="hwOIv3nCyyRwBFmye0TC-5" value="" style="endArrow=none;dashed=1;html=1;rounded=0;" parent="1" source="XhrBIPnR7uGEBVEJ_C42-6" target="scm1Mmv4SYqOX-3d9spi-9" edge="1">
          <mxGeometry width="50" height="50" relative="1" as="geometry">
            <mxPoint x="296" y="615" as="sourcePoint" />
            <mxPoint x="404" y="555" as="targetPoint" />
          </mxGeometry>
        </mxCell>
        <mxCell id="hwOIv3nCyyRwBFmye0TC-6" value="&amp;lt;&amp;lt;include&amp;gt;&amp;gt;" style="html=1;verticalAlign=bottom;labelBackgroundColor=none;endArrow=open;endFill=0;dashed=1;rounded=0;" parent="1" source="scm1Mmv4SYqOX-3d9spi-8" target="XhrBIPnR7uGEBVEJ_C42-2" edge="1">
          <mxGeometry width="160" relative="1" as="geometry">
            <mxPoint x="520" y="585" as="sourcePoint" />
            <mxPoint x="720" y="560" as="targetPoint" />
            <Array as="points" />
          </mxGeometry>
        </mxCell>
        <mxCell id="hwOIv3nCyyRwBFmye0TC-7" value="Porductos que integran lote" style="ellipse;whiteSpace=wrap;html=1;" parent="1" vertex="1">
          <mxGeometry x="170" y="970" width="120" height="80" as="geometry" />
        </mxCell>
        <mxCell id="hwOIv3nCyyRwBFmye0TC-8" value="Asignar lotes a camion" style="ellipse;whiteSpace=wrap;html=1;" parent="1" vertex="1">
          <mxGeometry x="170" y="1100" width="120" height="80" as="geometry" />
        </mxCell>
        <mxCell id="hwOIv3nCyyRwBFmye0TC-9" value="" style="endArrow=none;dashed=1;html=1;rounded=0;" parent="1" source="XhrBIPnR7uGEBVEJ_C42-5" target="scm1Mmv4SYqOX-3d9spi-2" edge="1">
          <mxGeometry width="50" height="50" relative="1" as="geometry">
            <mxPoint x="288" y="654" as="sourcePoint" />
            <mxPoint x="392" y="706" as="targetPoint" />
          </mxGeometry>
        </mxCell>
        <mxCell id="hwOIv3nCyyRwBFmye0TC-10" value="" style="endArrow=none;dashed=1;html=1;rounded=0;" parent="1" source="XhrBIPnR7uGEBVEJ_C42-5" target="scm1Mmv4SYqOX-3d9spi-1" edge="1">
          <mxGeometry width="50" height="50" relative="1" as="geometry">
            <mxPoint x="298" y="664" as="sourcePoint" />
            <mxPoint x="402" y="716" as="targetPoint" />
          </mxGeometry>
        </mxCell>
        <mxCell id="hwOIv3nCyyRwBFmye0TC-11" value="Visualizar Lote" style="ellipse;whiteSpace=wrap;html=1;" parent="1" vertex="1">
          <mxGeometry x="520" y="880" width="120" height="80" as="geometry" />
        </mxCell>
        <mxCell id="hwOIv3nCyyRwBFmye0TC-12" value="&amp;lt;&amp;lt;include&amp;gt;&amp;gt;" style="html=1;verticalAlign=bottom;labelBackgroundColor=none;endArrow=open;endFill=0;dashed=1;rounded=0;" parent="1" source="scm1Mmv4SYqOX-3d9spi-2" target="hwOIv3nCyyRwBFmye0TC-11" edge="1">
          <mxGeometry x="0.0056" width="160" relative="1" as="geometry">
            <mxPoint x="491" y="709" as="sourcePoint" />
            <mxPoint x="649" y="646" as="targetPoint" />
            <Array as="points" />
            <mxPoint as="offset" />
          </mxGeometry>
        </mxCell>
        <mxCell id="hwOIv3nCyyRwBFmye0TC-13" value="" style="endArrow=none;html=1;rounded=0;" parent="1" source="XhrBIPnR7uGEBVEJ_C42-1" target="hwOIv3nCyyRwBFmye0TC-7" edge="1">
          <mxGeometry width="50" height="50" relative="1" as="geometry">
            <mxPoint x="80" y="759" as="sourcePoint" />
            <mxPoint x="198" y="834" as="targetPoint" />
          </mxGeometry>
        </mxCell>
        <mxCell id="hwOIv3nCyyRwBFmye0TC-14" value="" style="endArrow=none;html=1;rounded=0;" parent="1" source="XhrBIPnR7uGEBVEJ_C42-1" target="hwOIv3nCyyRwBFmye0TC-8" edge="1">
          <mxGeometry width="50" height="50" relative="1" as="geometry">
            <mxPoint x="90" y="769" as="sourcePoint" />
            <mxPoint x="208" y="844" as="targetPoint" />
            <Array as="points">
              <mxPoint x="120" y="940" />
            </Array>
          </mxGeometry>
        </mxCell>
        <mxCell id="hwOIv3nCyyRwBFmye0TC-15" value="Visualizar Camion" style="ellipse;whiteSpace=wrap;html=1;" parent="1" vertex="1">
          <mxGeometry x="420" y="1100" width="120" height="80" as="geometry" />
        </mxCell>
        <mxCell id="hwOIv3nCyyRwBFmye0TC-16" value="&amp;lt;&amp;lt;include&amp;gt;&amp;gt;" style="html=1;verticalAlign=bottom;labelBackgroundColor=none;endArrow=open;endFill=0;dashed=1;rounded=0;" parent="1" source="hwOIv3nCyyRwBFmye0TC-8" target="hwOIv3nCyyRwBFmye0TC-15" edge="1">
          <mxGeometry x="0.0056" width="160" relative="1" as="geometry">
            <mxPoint x="430" y="930" as="sourcePoint" />
            <mxPoint x="640" y="930" as="targetPoint" />
            <Array as="points" />
            <mxPoint as="offset" />
          </mxGeometry>
        </mxCell>
        <mxCell id="qw9_Dls9ojc3tz4e6M4V-1" value="&lt;p style=&quot;margin: 4px 0px 0px; text-align: center;&quot;&gt;&lt;b style=&quot;border-color: var(--border-color);&quot;&gt;Usuario Operario&lt;/b&gt;&lt;br&gt;&lt;/p&gt;&lt;hr&gt;&lt;p style=&quot;margin:0px;margin-left:8px;&quot;&gt;&lt;br&gt;&lt;/p&gt;" style="verticalAlign=top;align=left;overflow=fill;fontSize=12;fontFamily=Helvetica;html=1;whiteSpace=wrap;fillColor=none;" vertex="1" parent="1">
          <mxGeometry x="110" y="430" width="680" height="760" as="geometry" />
        </mxCell>
      </root>
    </mxGraphModel>
  </diagram>
</mxfile>
